<svg xmlns="http://www.w3.org/2000/svg" xmlns:xlink="http://www.w3.org/1999/xlink" id="Layer_1" x="0px" y="0px" viewBox="0 0 654.2 330.3" style="enable-background:new 0 0 654.2 330.3;" xml:space="preserve"><style type="text/css">	.st0{fill-rule:evenodd;clip-rule:evenodd;fill:#FFFFFF;}	.st1{fill:#FFFFFF;}	.st2{fill:#00AAFF;}	.st3{fill:#0C70F1;}	.st4{fill:#00D6ED;}</style><path class="st0" d="M126.1,110.5h48v212h-48v-11.1c-11.5,6.5-24.8,11.1-39,11.1c-44.2,0-80-36.8-80-81s35.8-78.9,80-78.9 c14.2,0,28.4,3.4,39,9.1V110.5z M87.1,280.5c21.5,0,39-17.5,39-39s-17.5-39-39-39c-21.5,0-39,17.5-39,39S65.5,280.5,87.1,280.5z"></path><path class="st0" d="M461.2,320.3c15.7-3.8,29.8-12.2,40.6-24.2l-30.4-27.5c-7.1,7.9-17.5,11.9-28.9,11.9c-21.5,0-39-17.5-39-39 s17.5-39,39-39c11.3,0,21.5,5.8,28.6,13.5l30-27.9c-11-11.8-25.3-20-41-23.6c-15.7-3.6-32.2-2.3-47.1,3.7 c-15,5.9-27.8,16.3-36.8,29.6c-9,13.4-13.8,29.2-13.7,45.3c0.1,16.1,5.1,31.8,14.3,45.1c9.2,13.2,22.2,23.4,37.3,29.1 C429,323,445.5,324.1,461.2,320.3z"></path><path class="st1" d="M286.3,162.6c-5.7,0-10.9,0.7-15.5,2.1c-4.6,1.4-8.8,3.3-12.5,5.7c-3.7,2.4-7.2,5.1-10.2,8.2 c-1.3,1.3-2.6,2.7-3.8,4.1v-20.1h-48.1v160h48.1v-91.8c0-9.5,2.2-16.7,6.6-21.4c4.4-4.7,10.2-7,17.9-7s13.3,2.3,17.4,6.9 c4.1,4.7,6.2,11.9,6.2,21.4v91.8h48.1v-101c0-18.1-4.8-32.6-14.1-43.1C316.9,167.9,303.4,162.6,286.3,162.6L286.3,162.6z"></path><rect x="445.3" y="8" class="st2" width="102.5" height="102.5"></rect><path class="st3" d="M650.3,110.5H547.8V8h50.9c28.5,0,51.6,23.1,51.6,51.6V110.5z"></path><rect x="547.8" y="110.5" class="st4" width="102.5" height="102.5"></rect></svg>